<svg width="4" height="16" viewBox="0 0 4 16" fill="none" xmlns="http://www.w3.org/2000/svg">
<path d="M2 3.125C2.48325 3.125 2.875 2.73325 2.875 2.25C2.875 1.76675 2.48325 1.375 2 1.375C1.51675 1.375 1.125 1.76675 1.125 2.25C1.125 2.73325 1.51675 3.125 2 3.125Z" stroke="#737373" stroke-width="1.75" stroke-linecap="round" stroke-linejoin="round"/>
<path d="M2 8.875C2.48325 8.875 2.875 8.48325 2.875 8C2.875 7.51675 2.48325 7.125 2 7.125C1.51675 7.125 1.125 7.51675 1.125 8C1.125 8.48325 1.51675 8.875 2 8.875Z" stroke="#737373" stroke-width="1.75" stroke-linecap="round" stroke-linejoin="round"/>
<path d="M2 14.625C2.48325 14.625 2.875 14.2332 2.875 13.75C2.875 13.2668 2.48325 12.875 2 12.875C1.51675 12.875 1.125 13.2668 1.125 13.75C1.125 14.2332 1.51675 14.625 2 14.625Z" stroke="#737373" stroke-width="1.75" stroke-linecap="round" stroke-linejoin="round"/>
</svg>
